<?xml version="1.0" encoding="utf-8" ?>
<svg xmlns="http://www.w3.org/2000/svg" xmlns:xlink="http://www.w3.org/1999/xlink" width="1024" height="1024">
	<path fill="#065E41" d="M0 0L1024 0L1024 709.894L1024 718.593L1024 750.967L1024 1024L238.14 1024L140.734 1024L114.098 1024L0 1024L0 0Z"/>
	<path fill="#FEFEFE" d="M526.405 760.631C525.164 760.607 523.849 760.787 522.833 759.972C524.025 755.147 527.922 742.629 531.918 739.895C533.337 739.56 534.048 739.757 535.415 740.123L536.081 741.387C537.367 744.866 542.886 757.348 542.877 759.956C541.261 760.325 539.97 760.281 538.325 760.136C537.498 759.59 537.156 759.217 536.677 758.35C533.992 757.248 531.097 757.571 528.235 757.515C527.668 758.562 527.159 759.709 526.405 760.631Z"/>
	<path fill="#065E41" d="M532.645 744.876C532.796 745.074 532.971 745.256 533.098 745.47C534.172 747.283 536.057 751.707 535.415 753.652L534.095 754.075C532.559 753.991 531.242 754.244 530.089 753.15C529.66 750.666 531.677 747.236 532.645 744.876Z"/>
	<path fill="#FEFEFE" d="M597.015 649.684C598.295 649.672 599.432 649.73 600.705 649.93C601.679 655.309 600.716 662.532 600.656 668.084C600.538 679.156 600.787 690.264 600.394 701.328C599.005 701.29 597.828 701.162 596.471 700.865C595.575 699.317 595.385 655.258 596.133 650.303L597.015 649.684Z"/>
	<path fill="#FEFEFE" d="M453.207 757.895C451.55 755.33 450.509 753.335 450.476 750.227C450.445 747.29 451.38 744.152 453.602 742.126C455.315 740.564 457.506 739.855 459.81 740.061C463.587 740.398 465.466 742.192 467.734 745.041C468.179 746.82 468.792 748.543 468.36 750.377C467.482 751.322 467.035 751.751 465.684 751.772C462.981 751.812 457.806 750.14 455.619 752.056C455.896 753.421 456.232 754.117 457.069 755.228C460.904 757.394 464.619 752.881 467.314 756.307C467.119 757.332 467.113 757.523 466.195 758.152C463.821 759.778 459.987 760.055 457.262 759.363C455.886 759.013 454.514 758.444 453.207 757.895Z"/>
	<path fill="#065E41" d="M457.525 743.897C458.228 743.844 458.951 743.762 459.654 743.845C461.557 744.069 462.863 745.507 463.911 746.964C463.776 747.831 463.552 747.783 462.902 748.319C460.744 748.419 457.251 749.029 455.596 747.609C455.62 746.017 456.589 745.083 457.525 743.897Z"/>
	<path fill="#FEFEFE" d="M433.055 754.232C433.737 751.068 434.18 747.833 434.959 744.694C435.403 742.904 436 740.993 437.671 740.023C439.067 739.955 439.948 740.064 441.288 740.46C439.535 745.912 438.2 754.791 434.667 759.285L432.664 759.947C429.579 758.301 428.493 752.786 427.405 749.567L426.868 747.564L426.331 747.366C425.322 749.089 423.065 759.002 422.256 759.264C420.895 759.705 418.924 759.489 417.472 759.479C415.656 754.913 414.63 749.738 412.894 745.028C412.327 743.488 412.076 742.339 412.791 740.783C413.949 739.942 414.812 740.03 416.17 740.056C417.922 741.897 419.734 750.852 420.585 753.763C421.9 749.932 422.952 741.982 426.525 739.75L427.365 739.958C430.436 743.03 431.593 750.104 433.055 754.232Z"/>
	<path fill="#FEFEFE" d="M557.631 767.7C556.299 767.6 554.893 767.631 553.667 767.054C552.936 761.751 552.997 746.486 553.604 741.113C554.343 740.148 554.304 740.06 555.474 739.805C556.645 740.156 557.228 740.848 558.048 741.699L558.401 742.07C559.389 742.047 559.967 742.063 560.833 741.52C561.561 741.062 562.242 740.639 563.006 740.236C566.114 740.063 568.26 741.283 570.721 743.062C572.506 746.145 573.564 749.219 572.732 752.808Q572.618 753.282 572.456 753.742Q572.293 754.202 572.084 754.643Q571.876 755.084 571.623 755.501Q571.37 755.919 571.075 756.307Q570.781 756.696 570.448 757.053Q570.115 757.41 569.748 757.73Q569.38 758.051 568.981 758.332Q568.583 758.613 568.157 758.852C566.737 759.655 565.071 759.88 563.481 760.134C561.668 759.235 559.882 758.35 558.159 757.284C558.166 760.685 558.45 764.392 557.631 767.7Z"/>
	<path fill="#065E41" d="M561.302 744.697C562.906 744.263 564.157 744.019 565.686 744.969C566.155 745.259 566.486 745.529 566.943 745.872C567.992 747.987 568.486 749.911 567.802 752.251C567.367 753.741 566.415 755.226 564.917 755.818C563.305 756.455 561.609 756.004 560.162 755.21C559.819 754.827 559.626 754.638 559.337 754.168C558.337 752.534 557.926 750.458 558.355 748.58C558.796 746.647 559.704 745.716 561.302 744.697Z"/>
	<path fill="#FEFEFE" d="M482.987 759.446C481.82 759.231 481.006 759.017 479.978 758.419C478.418 756.132 478.622 738.081 479.239 734.676C479.488 733.301 479.695 733.231 480.79 732.526C482.022 732.781 482.681 732.839 483.474 733.949C484.715 735.686 483.985 740.776 483.929 742.97C485.393 741.776 486.95 740.688 488.81 740.237C490.89 739.732 493.654 740.381 495.393 741.61C495.659 741.798 495.914 742.001 496.178 742.192L497.367 743.044C498.599 746.859 499.419 751.398 497.591 755.177Q497.414 755.552 497.199 755.907Q496.983 756.261 496.733 756.592Q496.482 756.922 496.198 757.225Q495.914 757.528 495.601 757.799Q495.287 758.071 494.947 758.308Q494.607 758.546 494.245 758.747Q493.882 758.948 493.5 759.111Q493.118 759.273 492.722 759.395C491.172 759.859 489.397 759.687 487.8 759.583C486.569 758.956 485.589 757.964 484.138 758.02L482.987 759.446Z"/>
	<path fill="#065E41" d="M488.012 743.941C488.798 743.979 489.762 743.964 490.514 744.183C491.765 744.548 492.543 745.38 493.172 746.485C494.181 748.258 494.044 750.446 493.386 752.304C492.581 754.577 491.584 755.357 489.452 756.397C487.269 755.95 485.574 755.386 484.283 753.446C483.307 751.977 483.019 750.227 483.508 748.519C484.202 746.093 485.871 745.022 488.012 743.941Z"/>
	<path fill="#FEFEFE" d="M693.626 649.412C698.343 649.404 720.913 648.417 723.785 650.069C724.005 651.207 724.129 651.985 723.888 653.126C721.754 655.107 715.245 654.196 712.336 654.102C711.776 666.011 712.072 678.058 712.053 689.985C712.024 692.546 712.783 696.219 712.06 698.625C711.645 700.007 711.15 700.256 709.993 700.906C708.478 700.885 708.477 701.014 707.403 699.974C706.158 696.001 707.137 661.23 707.154 654.022C702.897 653.955 698.226 655.113 694.247 653.399C693.365 651.985 693.61 651.055 693.626 649.412Z"/>
	<path fill="#FEFEFE" d="M585.709 768.227C584.542 767.807 583.74 767.73 582.942 766.739C582.594 763.048 582.108 742.94 583.046 740.814C583.305 740.225 584.029 740.176 584.593 739.968C585.617 740.2 586.032 740.476 586.707 741.25C586.929 741.506 587.144 741.767 587.363 742.025C589.504 742.428 591.879 740.439 594.107 740.264C597.212 740.018 598.75 742.014 600.884 743.761C601.027 743.879 601.175 743.991 601.32 744.106C602.461 748.095 603.41 752.486 601.137 756.316C600.088 758.084 598.505 759.159 596.52 759.637C594.555 760.11 592.653 759.796 590.735 759.291C589.486 758.86 589.088 758.453 587.79 758.931C586.531 761.628 588.964 766.063 586.626 768.045L585.709 768.227Z"/>
	<path fill="#065E41" d="M589.332 755.002C588.317 754.013 587.75 753.175 587.456 751.783C587.066 749.933 587.205 748.152 588.33 746.567C589.138 745.428 590.312 744.644 591.731 744.5C593.845 744.287 595.116 745.334 596.545 746.675C597.376 748.423 598.012 750.308 597.466 752.265C597.136 753.443 596.212 754.583 595.141 755.166C593.572 756.019 591.584 755.866 589.952 755.268C589.741 755.191 589.539 755.091 589.332 755.002Z"/>
	<path fill="#FEFEFE" d="M424.977 648.515C433.37 648.634 442.091 647.925 450.429 648.755C451.263 650.04 451.39 651.649 451.689 653.143C444.818 654.246 437.525 653.029 430.58 653.606C428.909 656.313 429.956 665.511 430.005 669.111C433.814 669.084 447.152 668.14 449.733 669.643C450.349 670.911 450.285 671.045 450.059 672.452C449.269 673.365 449.337 673.149 448.217 673.227C442.152 673.648 436.061 673.199 429.988 673.354L430.054 696.699C433.53 696.629 448.839 695.65 450.867 697C451.147 698.482 451.234 699.761 451.227 701.27C442.869 701.935 434.214 701.453 425.817 701.453L425.634 701.458C424.236 699.686 424.974 654.653 424.977 648.515Z"/>
	<path fill="#FEFEFE" d="M608.873 648.219C613.531 652.937 617.519 658.311 621.807 663.361L645.283 690.545C644.681 682.253 644.868 673.773 644.73 665.449C644.661 661.347 644.086 656.631 644.604 652.614C644.783 651.225 645.304 650.751 646.339 649.903C647.845 649.805 648.067 649.841 649.406 650.531C650.092 656.543 649.538 662.867 649.519 668.927L649.494 702.859C637.929 688.667 625.662 675.068 614.135 660.86Q614.427 680.667 614.178 700.475L613.997 700.959C612.559 701.003 610.873 701.286 609.672 700.376C609.156 695.414 609.404 690.281 609.402 685.292C609.395 672.992 609.813 660.484 608.873 648.219Z"/>
	<path fill="#FEFEFE" d="M676.514 648.011C681.383 658.772 686.01 669.622 690.743 680.442C693.447 686.626 697.185 693.326 698.63 699.888L698.145 700.591C697.162 700.784 696.57 700.959 695.593 700.598C693.385 699.783 689.532 689.152 688.469 686.528C682.854 684.825 672.562 686.618 666.139 686.034C663.014 689.166 661.344 697.084 658.572 701.31C657.5 700.289 655.617 700.404 654.204 700.263C662.008 683.032 669.826 665.706 676.514 648.011Z"/>
	<path fill="#065E41" d="M669.773 682.152C669.025 682.111 668.407 681.981 667.681 681.813C667.598 680.181 675.453 662.589 676.726 659.776C677.594 660.337 677.741 660.806 678.215 661.698C680.684 668.507 683.513 675.344 686.439 681.972C680.891 682.026 675.317 681.97 669.773 682.152Z"/>
	<path fill="#FEFEFE" d="M579.544 648.105Q580.074 650.78 580.812 653.405C581.812 662.195 588.718 695.885 587.887 701.267C586.71 701.146 585.587 700.952 584.428 700.725C581.938 697.09 578.714 670.532 577.645 664.064C576.558 666.459 575.436 668.827 574.654 671.344C569.889 681.196 565.414 691.497 561.35 701.656C555.317 691.932 551.16 679.095 546.537 668.503L545.302 666.126C543.739 668.949 542.169 680.194 541.983 683.822C540.769 689.514 539.762 695.204 538.854 700.952C537.426 700.937 535.886 701.163 534.71 700.235C534.319 695.896 535.783 690.691 536.531 686.394C538.584 674.599 541.409 662.678 542.747 650.798C549.604 663.96 555.321 677.679 561.169 691.309C566.74 676.772 573.61 662.532 579.544 648.105Z"/>
	<path fill="#FEFEFE" d="M367.118 648.21C370.877 648.181 374.64 648.235 378.399 648.251C378.006 663.442 378.378 678.718 378.428 693.919C384.297 694.107 390.227 693.927 396.101 693.91C396.165 696.961 396.309 700.011 395.927 703.047L367.223 703.475C366.641 696.483 366.902 689.254 366.913 682.231Q366.917 665.22 367.118 648.21Z"/>
	<path fill="#FEFEFE" d="M782.954 649.727C787.366 649.605 792.334 649.058 796.688 649.729C800.617 650.335 804.068 652.862 806.336 656.05L807.787 658.065C808.768 662.743 809.088 667.505 806.28 671.673C803.424 675.913 795.368 677.225 794.982 678.195L795.545 679.319L811.181 701.983C809.302 702.019 807.575 702.05 805.727 701.679C801.191 698.005 791.401 681.465 787.624 675.789C787.49 681.376 788.844 698.778 786.005 702.358L784.495 702.294C784.046 701.843 783.42 701.515 783.147 700.939C782.483 699.541 782.942 656.121 782.954 649.727Z"/>
	<path fill="#065E41" d="M787.749 653.832C792.228 653.706 795.904 653.481 799.749 656.23C801.802 657.698 803.445 659.917 803.729 662.478C804.1 665.822 802.573 668.82 800.548 671.35C796.242 674.102 792.516 673.791 787.606 673.49Q787.835 663.662 787.749 653.832Z"/>
	<path fill="#FEFEFE" d="M468.759 673.483C467.022 670.737 455.247 650.183 455.469 649.046C456.822 648.767 457.75 648.591 459.141 648.796C463.127 651.658 468.755 663.653 471.654 668.53C475.337 661.872 479.295 655.35 483.151 648.791C484.794 648.644 486.232 648.617 487.872 648.813L488.289 649.583C486.303 652.787 474.352 670.832 474.793 672.744C475.036 673.793 475.663 674.664 476.226 675.565C480.395 683.551 484.86 691.519 489.795 699.06C492.371 692.627 508.359 651.482 510.323 649.272C511.566 649.768 512.492 652.444 513.038 653.704C519.721 669.124 525.049 685.233 532.501 700.325L528.42 701.178C525.809 698.851 523.107 691.166 522.4 687.801C521.318 686.563 520.926 686.425 519.285 686.32C512.88 685.908 506.378 686.55 499.964 686.23C498.027 690.956 496.202 697.266 493.074 701.24L492.452 701.203C490.004 701.081 487.826 701.33 485.418 701.708Q479.535 690.966 473.371 680.382C472.698 679.34 472.403 678.405 471.217 677.954C467.867 682.022 459.84 699.716 457.478 701.207C457.263 701.343 456.131 701.543 456.032 701.556C455.172 701.665 454.209 701.585 453.34 701.57C455.422 693.539 464.282 680.965 468.759 673.483Z"/>
	<path fill="#065E41" d="M501.475 682.333C502.664 679.261 509.11 661.53 510.689 660.819L511.732 662.469C514.218 669.121 516.958 675.778 519.991 682.198C513.853 682.351 507.609 682.627 501.475 682.333Z"/>
	<path fill="#FEFEFE" d="M334.684 645.342C337.337 648.207 340.184 655.975 341.995 659.699C349.058 674.224 356.112 688.693 362.784 703.404L352.037 703.387C350.335 699.912 348.794 696.37 347.24 692.827L338.208 692.999L323.068 693.073C321.757 696.609 320.147 700.036 318.606 703.477L309.139 702.95C311.234 693.147 316.603 683.698 320.883 674.678L334.684 645.342Z"/>
	<path fill="#065E41" d="M329.053 684.074L328.246 683.467C328.231 683.304 328.198 683.142 328.203 682.979C328.273 680.741 333.671 669.468 335.363 667.491L336.189 668.362C337.328 673.752 340.26 679.141 342.59 684.131C338.344 684.219 333.208 684.849 329.053 684.074Z"/>
	<path fill="#FEFEFE" d="M270.453 648.054C277.628 648.269 286.007 647.135 292.848 649.418C296.972 650.794 300.357 653.567 302.124 657.584C303.889 661.597 304.065 666.443 302.461 670.534C300.49 675.56 296.991 677.856 292.294 679.916Q300.478 691.419 308.405 703.101L296.502 703.138C291.404 695.738 286.467 688.01 280.785 681.044L280.935 703.343L270.253 703.272C270.074 684.877 270.364 666.451 270.453 648.054Z"/>
	<path fill="#065E41" d="M281.116 657.497C283.71 657.458 286.427 657.205 288.842 658.318C290.648 659.151 292.334 660.441 292.857 662.452C293.498 664.923 292.456 667.85 291.111 669.903C287.692 671.752 284.921 671.629 281.151 671.556L281.116 657.497Z"/>
	<path fill="#FEFEFE" d="M742.648 700.884C736.629 698.494 731.493 695.418 728.028 689.752Q727.667 689.149 727.336 688.529Q727.005 687.909 726.705 687.273Q726.405 686.637 726.138 685.987Q725.87 685.337 725.635 684.675Q725.4 684.012 725.198 683.339Q724.997 682.665 724.829 681.983Q724.661 681.3 724.528 680.61Q724.394 679.92 724.295 679.224Q724.196 678.528 724.132 677.828Q724.068 677.128 724.039 676.425Q724.009 675.723 724.015 675.02Q724.021 674.317 724.062 673.615Q724.103 672.914 724.178 672.215Q724.254 671.516 724.365 670.822Q724.475 670.128 724.62 669.44Q724.765 668.752 724.944 668.072C726.849 661.119 731.611 654.542 738.028 651.145C743.915 648.028 751.318 647.618 757.602 649.747C766.016 652.598 770.141 659.57 773.734 667.086C775.095 675.755 775.421 683.433 770.026 690.97C766.021 696.565 759.861 700.51 753.016 701.439C749.63 701.899 745.985 701.591 742.648 700.884Z"/>
	<path fill="#065E41" d="M732.428 687.488C732.047 686.8 731.675 686.115 731.331 685.407C728.592 679.759 728.354 672.589 730.501 666.706C732.437 661.402 736.487 656.773 741.751 654.596C747.098 652.384 752.809 653.014 758 655.304C763.084 657.927 766.693 662.696 768.391 668.105C770.28 674.119 769.973 680.887 766.999 686.502C764.541 691.143 760.375 694.694 755.288 696.097C749.942 697.571 743.559 696.728 738.804 693.873C736.172 692.293 733.949 690.16 732.428 687.488Z"/>
	<path fill="#FEFEFE" d="M233.263 647.209C239.445 647.137 245.431 648.785 250.378 652.603Q250.954 653.052 251.507 653.53Q252.06 654.007 252.588 654.512Q253.116 655.017 253.618 655.547Q254.121 656.077 254.596 656.632Q255.072 657.187 255.519 657.764Q255.966 658.342 256.383 658.942Q256.801 659.541 257.188 660.16Q257.575 660.78 257.931 661.418Q258.287 662.056 258.61 662.711Q258.933 663.366 259.224 664.036Q259.514 664.707 259.771 665.391Q260.027 666.075 260.249 666.771Q260.471 667.467 260.658 668.173Q260.845 668.879 260.997 669.594Q261.148 670.308 261.264 671.029Q261.38 671.751 261.459 672.477C262.296 679.977 260.444 687.545 255.648 693.454C249.954 700.469 242.756 703.037 234.05 704.014C226.925 703.85 220.505 702.563 214.737 698.004Q214.189 697.566 213.665 697.101Q213.14 696.636 212.639 696.145Q212.139 695.654 211.664 695.138Q211.188 694.622 210.74 694.083Q210.291 693.544 209.871 692.983Q209.45 692.422 209.058 691.841Q208.666 691.259 208.304 690.659Q207.942 690.058 207.611 689.44Q207.28 688.822 206.98 688.188Q206.68 687.554 206.413 686.906Q206.146 686.257 205.912 685.596Q205.678 684.935 205.477 684.263Q205.277 683.591 205.111 682.91Q204.944 682.229 204.813 681.54Q204.681 680.852 204.584 680.157Q204.488 679.463 204.426 678.764C203.722 670.913 206.115 662.888 211.331 656.924C217.249 650.156 224.642 647.885 233.263 647.209Z"/>
	<path fill="#065E41" d="M233.227 657.633C236.44 657.676 239.418 658.361 242.206 660.015C246.095 662.321 248.616 666.177 249.698 670.517C250.956 675.568 250.509 681.387 247.614 685.816C244.421 690.702 239.754 692.58 234.266 693.587C230.379 693.598 226.691 692.862 223.394 690.689C219.345 688.021 216.763 683.747 215.954 678.996Q215.869 678.524 215.809 678.047Q215.749 677.571 215.713 677.093Q215.678 676.614 215.668 676.134Q215.657 675.654 215.672 675.175Q215.686 674.695 215.725 674.217Q215.765 673.738 215.829 673.263Q215.893 672.787 215.982 672.316Q216.071 671.844 216.184 671.378Q216.297 670.911 216.434 670.451Q216.571 669.991 216.732 669.539Q216.893 669.087 217.078 668.644Q217.262 668.201 217.469 667.768Q217.676 667.335 217.905 666.913Q218.134 666.491 218.385 666.082Q218.636 665.673 218.907 665.277Q219.179 664.882 219.471 664.501C223.053 659.911 227.698 658.364 233.227 657.633Z"/>
	<path fill="#FEFEFE" d="M369.134 472.427C368.686 472.548 368.24 472.677 367.788 472.782C350.566 476.774 331.34 479.057 313.754 481.823C302.997 483.515 289.891 486.945 279.087 486.429C272.478 486.114 265.905 484.274 260.32 480.677C251.415 474.941 245.876 467.023 243.775 456.65C242.181 448.779 241.272 440.658 240.09 432.703L234.072 392.636L230.071 365.49C228.936 357.762 227.388 349.886 227.686 342.05C227.96 334.868 229.816 328.76 233.84 322.783C238.497 315.866 245.094 310.129 252.91 307.13C264.545 302.665 289.86 300.202 303.501 298.037Q347.49 290.819 391.601 284.391C408.896 281.783 426.33 279.677 443.497 276.299C443.3 280.631 443.755 284.211 446.808 287.619C450.456 291.694 455.89 293.563 460.782 295.648C462.756 296.489 465.18 297.599 466.191 299.618C467.657 302.547 466.601 308.259 467.347 311.628C468.697 317.723 472.494 323.185 474.616 329.02C472.456 334.647 462.637 346.904 464.903 351.554C465.619 353.024 466.668 353.837 468.238 354.328C471.101 355.222 475.378 353.752 477.178 356.835C479.09 360.108 473.059 367.663 477.639 369.367C480.838 370.557 485.31 369.554 488.71 369.753C487.315 372.331 484.852 375.92 485.871 378.98C486.456 380.737 488.159 381.801 489.82 382.369C491.386 382.904 493.059 383.186 494.681 383.502C493.986 387.271 492.961 392.202 495.292 395.661C496.209 397.023 497.377 397.85 499.008 398.04C508.827 399.181 523.368 384.07 530.751 384.664Q531.965 393.441 532.952 402.247C534.48 415.25 535.432 425.914 527.244 437.017C519.744 447.187 509.811 450.059 497.82 451.771Q487.597 453.145 477.395 454.667C481.815 465.389 487.892 475.722 493.177 486.06C497.834 495.169 502.007 504.775 507.078 513.629C473.485 498.616 441.126 480.707 407.312 466.191C396.462 467.669 385.705 469.939 374.873 471.591C372.497 471.072 371.327 471.413 369.134 472.427Z"/>
	<path fill="#065E41" d="M366.62 311.677C383.053 310.389 398.191 314.058 411.715 323.644C426.5 334.124 437.207 351.07 440.075 368.978Q440.334 370.54 440.514 372.114Q440.693 373.687 440.793 375.267Q440.894 376.848 440.914 378.431Q440.934 380.015 440.874 381.597Q440.814 383.18 440.675 384.757Q440.535 386.334 440.316 387.903Q440.097 389.471 439.799 391.026Q439.501 392.582 439.125 394.12Q438.749 395.658 438.296 397.175Q437.842 398.693 437.313 400.185Q436.784 401.678 436.18 403.142Q435.576 404.606 434.899 406.037Q434.222 407.469 433.474 408.864Q432.725 410.26 431.907 411.616Q431.089 412.972 430.204 414.285Q429.319 415.597 428.368 416.864C417.482 431.568 401.866 440.18 383.904 442.84C367.076 444.69 350.695 440.75 337.122 430.431C322.829 419.566 313.078 404.111 310.666 386.207C308.258 368.333 312.225 350.511 323.342 336.176C334.113 322.286 349.279 313.961 366.62 311.677Z"/>
	<path fill="#FEFEFE" d="M367.844 319.662C382.504 318.387 395.926 322.527 407.961 330.969Q409.148 331.794 410.291 332.678Q411.435 333.561 412.533 334.501Q413.632 335.44 414.681 336.434Q415.731 337.427 416.73 338.471Q417.729 339.516 418.674 340.609Q419.619 341.703 420.509 342.842Q421.398 343.981 422.23 345.163Q423.061 346.345 423.832 347.568Q424.603 348.79 425.312 350.049Q426.022 351.309 426.667 352.602Q427.312 353.895 427.892 355.219Q428.471 356.543 428.984 357.894Q429.497 359.245 429.941 360.621Q430.386 361.996 430.761 363.392Q431.136 364.787 431.441 366.2Q431.746 367.613 431.98 369.039Q432.208 370.407 432.367 371.785Q432.527 373.163 432.618 374.547Q432.71 375.931 432.732 377.318Q432.755 378.705 432.709 380.092Q432.663 381.478 432.549 382.861Q432.434 384.243 432.251 385.618Q432.068 386.993 431.818 388.357Q431.567 389.722 431.249 391.072Q430.931 392.422 430.547 393.755Q430.163 395.088 429.713 396.4Q429.263 397.712 428.749 399.001Q428.235 400.289 427.657 401.55Q427.08 402.812 426.441 404.043Q425.802 405.274 425.103 406.472Q424.403 407.67 423.646 408.832Q422.888 409.994 422.074 411.117C412.321 424.643 399.358 431.725 383.114 434.428C368.549 436.092 354.13 432.757 342.134 424.201C329.594 415.257 321.421 402.713 318.953 387.444C316.378 371.516 319.643 354.961 329.241 341.864C338.541 329.175 352.52 322.059 367.844 319.662Z"/>
	<path fill="#065E41" d="M401.622 346.527C403.737 347.01 405.279 347.893 406.992 349.212C409.221 350.929 411.553 353.273 411.844 356.225C412.122 359.039 408.301 363.262 406.576 365.375L384.234 392.26C380.121 397.222 376.219 402.652 371.702 407.242C370.144 408.825 367.189 411.914 364.985 412.065C360.743 412.355 356.089 407.376 353.179 404.833C349.98 401.814 342.832 397.014 342.016 392.524C341.609 390.284 342.384 388.041 343.745 386.264C345.204 384.359 347.482 382.832 349.927 382.687C354.327 382.426 359.059 387.985 362.268 390.609C372.616 382.426 392.977 349.106 401.622 346.527Z"/>
</svg>
