<?xml version="1.0" encoding="utf-8" ?>
<svg xmlns="http://www.w3.org/2000/svg" xmlns:xlink="http://www.w3.org/1999/xlink" width="1024" height="1024">
	<path fill="#FEFEFE" d="M0 0L1024 0L1024 475.205L1024 1024L0 1024L0 724.242L0 0Z"/>
	<path fill="#065E41" d="M748.722 360.788C754.09 373.915 759.806 383.724 773.407 389.507C778.51 391.677 783.903 392.822 789.338 393.8C786.711 395.126 784.457 397.419 782.352 399.451C729.287 449.534 677.039 500.657 622.953 549.64C618.807 546.692 615.042 543.133 611.321 539.674Q651.474 482.648 692.551 426.285L721.829 385.733C726.682 379.054 731.373 372.114 736.576 365.711C737.751 364.264 738.826 362.97 740.463 362.027Q744.597 361.438 748.722 360.788Z"/>
	<path fill="#178B6F" d="M748.722 360.788C754.09 373.915 759.806 383.724 773.407 389.507C778.51 391.677 783.903 392.822 789.338 393.8C786.711 395.126 784.457 397.419 782.352 399.451C779.334 398.174 776.166 397.357 773.144 396.095C763.654 392.134 755.146 385.844 749.803 376.92C746.943 372.142 744.448 366.563 740.783 362.379C740.679 362.26 740.57 362.145 740.463 362.027Q744.597 361.438 748.722 360.788Z"/>
	<path fill="#178B6F" d="M738.386 381.829C740.933 383.938 743.143 387.728 745.364 390.29C749.115 394.618 753.228 398.073 757.707 401.596C739.782 418.228 722.672 435.614 705.334 452.849L656.134 501.72C652.467 505.231 648.907 508.872 645.305 512.451C650.33 502.5 660.019 490.368 666.676 480.911Q690.054 448.196 713.916 415.831C722.126 404.615 730.87 393.515 738.386 381.829Z"/>
	<path fill="#065E41" d="M321.341 343.215C333.405 342.895 345.627 340.957 357.629 339.591Q392.245 335.801 426.78 331.327C482.017 324.678 537.381 319.096 592.554 311.83C593.72 322.198 595.167 332.679 595.768 343.087C580.18 345.542 564.228 346.728 548.534 348.423L468.659 357.14L368.722 368.259C353.897 369.903 339.072 371.883 324.212 373.174Q323.088 358.165 321.341 343.215Z"/>
	<path fill="#065E41" d="M456.95 424.261C456.936 413.385 459.89 403.666 467.803 395.845Q468.461 395.202 469.149 394.592Q469.837 393.982 470.555 393.406Q471.272 392.831 472.017 392.291Q472.762 391.752 473.532 391.249Q474.303 390.747 475.097 390.283Q475.891 389.819 476.707 389.395Q477.523 388.971 478.359 388.587Q479.195 388.203 480.049 387.861Q480.903 387.519 481.772 387.219Q482.642 386.92 483.525 386.663Q484.408 386.406 485.303 386.193Q486.198 385.98 487.102 385.811Q488.006 385.643 488.917 385.519Q489.828 385.394 490.745 385.315Q491.661 385.236 492.58 385.202Q493.499 385.168 494.419 385.179Q495.348 385.182 496.277 385.231Q497.205 385.281 498.129 385.378Q499.054 385.475 499.972 385.618Q500.89 385.762 501.8 385.952Q502.71 386.142 503.609 386.378Q504.508 386.614 505.394 386.895Q506.28 387.176 507.15 387.502Q508.021 387.828 508.874 388.197Q509.727 388.567 510.56 388.979Q511.392 389.392 512.203 389.846Q513.014 390.3 513.801 390.795Q514.588 391.289 515.349 391.823Q516.11 392.357 516.842 392.929Q517.575 393.501 518.278 394.11Q518.981 394.718 519.652 395.361Q520.323 396.005 520.96 396.681Q521.827 397.592 522.633 398.556Q523.44 399.521 524.182 400.535Q524.925 401.55 525.601 402.61Q526.276 403.67 526.882 404.771Q527.489 405.873 528.023 407.011Q528.557 408.149 529.016 409.32Q529.476 410.49 529.859 411.687Q530.242 412.884 530.548 414.104C533.184 424.715 531.824 441.834 531.801 452.986C531.779 463.856 532.211 474.832 531.878 485.691C531.536 496.81 527.222 507.009 519.035 514.646C511.928 521.277 501.947 525.078 492.228 524.62C482.005 524.138 472.858 519.685 466.018 512.072C456.876 501.895 457.317 491.028 457.411 478.157L457.515 469.012Q457.521 462.987 457.436 456.963Q456.967 440.615 456.95 424.261Z"/>
	<path fill="#178B6F" d="M457.515 469.012C462.6 468.302 470.171 466.571 474.51 470.062C475.326 470.718 475.809 471.355 475.965 472.402C476.096 473.285 475.612 474.201 475.05 474.861C472.889 477.399 469.097 478.151 465.93 478.324C463.129 478.476 460.216 478.256 457.411 478.157L457.515 469.012Z"/>
	<path fill="#178B6F" d="M456.95 424.261C461.195 423.67 469.873 421.611 473.511 424.143C474.353 424.729 474.628 425.264 475.058 426.161C475.179 427.816 474.994 429.512 473.889 430.847C471.589 433.625 467.64 433.426 464.371 433.525C462.01 433.597 459.614 433.552 457.263 433.762Q457.456 440.798 457.493 447.836C462.117 446.263 468.574 444.416 473.156 446.857C474.645 447.65 475.471 448.588 475.928 450.217C475.822 451.751 475.284 452.83 474.166 453.867C469.917 457.809 462.805 457.052 457.436 456.963Q456.967 440.615 456.95 424.261Z"/>
	<path fill="#065E41" d="M314.372 281.524Q316.186 279.515 318.094 277.596C343.858 252.182 406.321 234.428 441.755 229.164C458.199 226.721 474.622 225.884 491.234 225.927C518.537 225.999 546.548 229.759 572.47 238.52C577.276 240.144 583.51 241.857 587.167 245.528C588.941 249.362 586.831 254.525 586.821 258.675C586.82 258.863 586.824 259.05 586.826 259.237C588.466 274.345 589.807 289.543 591.781 304.608C592.053 307.002 592.429 309.426 592.554 311.83C537.381 319.096 482.017 324.678 426.78 331.327Q392.245 335.801 357.629 339.591C345.627 340.957 333.405 342.895 321.341 343.215L320.358 335.516C319.651 330.559 319.344 325.456 318.835 320.471C316.434 311.921 315.339 291.282 314.372 281.524Z"/>
	<path fill="#178B6F" d="M591.781 304.608C592.053 307.002 592.429 309.426 592.554 311.83C537.381 319.096 482.017 324.678 426.78 331.327Q392.245 335.801 357.629 339.591C345.627 340.957 333.405 342.895 321.341 343.215L320.358 335.516C326.77 333.895 336.899 333.918 343.77 333.211C359.697 331.573 375.638 329.66 391.537 327.757L591.781 304.608Z"/>
	<path fill="#065E41" d="M546.741 446.447C548.224 446.398 549.955 446.111 551.152 447.173C553.619 449.361 552.484 456.771 552.469 459.905C554.383 459.829 556.631 459.649 558.501 460.066C560.451 460.502 561.899 461.565 562.889 463.283C562.894 464.568 562.928 464.923 562.035 465.955C559.782 468.564 555.545 467.986 552.484 467.948C552.566 488.765 554.31 505.601 541.068 523.298C530.832 536.977 517.143 543.319 500.544 545.708C500.696 551.801 500.607 557.921 500.628 564.017C515.698 563.829 529.865 566.253 542.55 574.785C558.028 573.444 573.591 572.619 589.089 571.479Q597.149 559.147 605.981 547.355C609.7 549.941 612.947 553.495 616.114 556.709C611.085 561.228 606.222 565.851 601.681 570.865Q694.579 562.941 787.686 558.064L787.843 737.939C777.222 744.937 765.511 750.938 754.454 757.274L694.945 791.386L499.733 902.658C487.336 896.864 475.293 889.557 463.429 882.711C452.946 876.662 442.31 870.855 431.768 864.904C358.488 822.555 284.303 781.799 211.341 738.887L211.061 599.118C235.284 598.406 260.501 595.631 284.739 593.621L374.694 586.661C397.208 584.871 419.743 582.68 442.299 581.486Q443.187 580.287 444.177 579.17C453.981 568.047 476.303 565.259 490.125 564.389L490.068 545.653Q488.787 545.506 487.514 545.306Q486.241 545.107 484.977 544.855Q483.713 544.603 482.46 544.299Q481.207 543.995 479.968 543.64Q478.729 543.285 477.506 542.879Q476.282 542.473 475.077 542.017Q473.871 541.561 472.685 541.056Q471.5 540.55 470.336 539.997Q469.172 539.443 468.031 538.842Q466.891 538.241 465.777 537.593Q464.662 536.946 463.575 536.253Q462.488 535.56 461.431 534.823Q460.374 534.086 459.348 533.306Q458.321 532.526 457.328 531.704Q456.335 530.882 455.377 530.02Q454.418 529.159 453.496 528.258C435.623 510.996 436.682 493.018 436.41 470.226C434.474 469.854 432.373 469.797 430.493 469.194C428.571 468.578 426.956 467.116 426.044 465.353C426.111 464.037 426.061 463.717 427.057 462.739C429.432 460.406 433.481 460.535 436.547 460.541C436.424 458.392 436.025 455.69 436.622 453.618C437.127 451.867 438.181 450.582 439.76 449.705C441.187 449.706 441.544 449.694 442.686 450.682C445.168 452.829 444.559 457.23 444.525 460.142C447.146 460.043 450.319 459.692 452.781 460.728C454.144 461.3 454.731 461.715 455.316 463.058C454.741 467.486 447.863 470.544 445.048 473.682C444.884 473.865 444.723 474.052 444.561 474.237C444.154 478.674 444.043 483.229 444.06 487.686C444.115 501.534 448.459 513.038 458.448 522.841C468.585 532.788 481.762 538.624 496.028 538.483C509.186 538.354 521.654 533.555 530.839 524.026C547.528 506.714 545.65 489.656 545.335 467.506C542.327 467.588 538.473 468.186 536.043 466.01C534.995 465.072 534.859 464.483 534.754 463.128C535.111 462.467 535.438 461.881 536.041 461.407C538.693 459.322 542.234 460.05 545.357 460.267C545.38 456.413 544.377 449.521 546.741 446.447Z"/>
	<path fill="#FEFEFE" d="M446.456 634.922C449.637 634.871 452.823 634.903 456.005 634.895L456.044 685.033L473.688 684.972L473.696 693.543L446.567 693.503L446.456 634.922Z"/>
	<path fill="#FEFEFE" d="M545.098 634.963C548.812 634.796 552.537 634.855 556.254 634.869C561.843 641.554 566.624 649.245 571.58 656.415C577.236 649.717 582.105 642.072 587.062 634.85L597.913 634.995C591.533 644.722 584.039 653.977 577.115 663.35C583.465 673.208 591.592 682.452 596.702 693.017L596.443 693.621L594.577 693.808L586.822 693.857Q578.911 682.066 570.853 670.375C566.017 678.459 560.025 685.97 554.748 693.795L543.796 693.567C550.653 683.267 558.425 673.335 565.691 663.299C559.653 653.662 552.626 643.525 545.098 634.963Z"/>
	<path fill="#FEFEFE" d="M501.888 634.939L539.992 634.881L539.967 643.261C530.528 643.524 521.069 643.429 511.627 643.451L511.557 659.26Q523.299 659.127 535.042 659.159L535.066 667.534C527.722 667.511 519.299 666.661 512.093 667.771L511.594 668.547L511.569 684.997L539.694 685.013L539.632 693.452L501.921 693.552L501.888 634.939Z"/>
	<path fill="#FEFEFE" d="M627.138 633.713C631.202 636.338 653.027 685.367 657.381 693.8L647.34 693.804L640.469 680.03L629.625 680.015L613.908 680.012C612.303 684.672 610.034 689.332 608.121 693.889L598.404 693.856C606.427 674.616 616.909 651.826 627.138 633.713Z"/>
	<path fill="#065E41" d="M627.464 651.352C629.842 653.421 635.155 667.85 636.781 671.714C634.236 671.838 631.673 671.826 629.125 671.87L618.122 671.859C621.304 665.057 624.358 658.19 627.464 651.352Z"/>
	<path fill="#FEFEFE" d="M413.713 632.358C416.575 635.223 440.449 686.43 443.48 693.335L433.745 693.379Q430.736 686.596 427.34 679.997L414.75 679.973L400.949 680L393.854 693.482L384.271 693.476C393.106 672.746 404.148 652.789 413.713 632.358Z"/>
	<path fill="#065E41" d="M413.685 651.863C416.391 654.728 421.246 667.712 423.025 671.812L414.25 671.914L404.267 671.913Q409.329 662.054 413.685 651.863Z"/>
	<path fill="#FEFEFE" d="M667.931 633.342C671.181 636.731 673.697 642.401 676.083 646.536Q685.325 662.601 694.276 678.831C697.713 672.326 717.684 635.546 720.733 634.02L721.351 634.533C723.016 643.904 723.381 653.68 724.117 663.17C724.897 673.222 725.955 683.256 726.631 693.314L717.971 693.357C716.938 685.482 716.363 677.533 715.667 669.621C715.288 665.473 715.033 661.308 714.727 657.154C711.344 663.936 700.427 686.285 696.208 690.768C695.297 691.736 694.801 691.9 693.507 691.987C689.428 689.61 676.734 663.447 673.205 657.73Q671.581 675.883 668.82 693.899L659.813 693.87C662.681 678.579 663.218 662.641 665.455 647.199C666.118 642.622 666.568 637.771 667.931 633.342Z"/>
	<path fill="#FEFEFE" d="M341.512 634.914C350.548 634.774 362.95 633.174 371.129 637.677C374.827 639.713 377.714 642.897 378.744 647.052C379.813 651.37 378.959 656.184 376.65 659.964C373.46 665.186 369.214 666.765 363.609 668.145Q373.037 680.908 382.705 693.49L372.055 693.49C365.54 684.766 359.083 674.397 351.241 666.898C351.052 675.743 351.189 684.617 351.181 693.466L341.478 693.551L341.512 634.914Z"/>
	<path fill="#065E41" d="M351.314 642.48C355.968 642.656 361.509 642.37 365.744 644.609C367.434 645.502 368.925 647.031 369.403 648.922C370.176 651.987 368.899 655.443 367.464 658.106C362.773 661.312 356.722 660.585 351.3 660.549L351.314 642.48Z"/>
	<path fill="#FEFEFE" d="M495.569 715.836C506.502 715.828 525.274 713.842 534.063 720.752C537.927 723.789 539.983 728.311 540.377 733.152C540.772 738.005 539.561 742.917 536.209 746.556C530.58 752.668 522.438 753.093 514.713 753.256L505.864 753.368C505.649 762.257 505.835 771.193 505.832 780.087L495.725 780.1L495.569 715.836Z"/>
	<path fill="#065E41" d="M505.924 724.165C511.893 724.085 521.332 723.118 526.337 727.036C528.362 728.621 529.264 730.669 529.488 733.192C529.837 737.116 529.094 739.131 526.583 742.11C520.536 745.819 512.705 744.923 505.869 744.915L505.924 724.165Z"/>
	<path fill="#FEFEFE" d="M565.556 715.743C573.259 715.661 581.717 716.147 587.452 722.019C590.911 725.56 592.667 730.415 592.62 735.337C592.574 740.186 590.733 744.81 587.166 748.141C579.721 755.094 567.364 753.472 558.009 753.377L558.005 762.25L558.037 780.126L547.896 780.157L547.983 715.876L565.556 715.743Z"/>
	<path fill="#065E41" d="M559.777 724.252Q562.659 724.203 565.541 724.186C570.337 724.162 575.974 724.232 579.521 727.99C581.486 730.072 582.49 733.225 582.342 736.064C582.184 739.086 580.309 741.036 578.189 742.963C571.935 745.818 564.71 745.047 558.001 744.983C557.952 740.565 557.038 728.224 558.45 724.612L559.777 724.252Z"/>
	<path fill="#FEFEFE" d="M457.298 712.778C460.891 716.222 485.494 771.358 490.191 780.126L478.629 780.264L472.517 767.613L459.125 767.775L441.356 767.765C439.497 771.933 437.416 776.009 435.404 780.105L424.306 780.008C435.592 757.729 445.389 734.764 457.298 712.778Z"/>
	<path fill="#065E41" d="M457.241 734.295C461.069 738.089 466.479 753.711 468.91 759.473L457.25 759.419L445.151 759.39C449.212 751.031 453.026 742.585 457.241 734.295Z"/>
	<path fill="#FEFEFE" d="M294.422 633.676C302.7 632.624 311.669 634.46 318.62 639.133Q319.268 639.57 319.895 640.039Q320.52 640.508 321.122 641.008Q321.724 641.507 322.301 642.036Q322.877 642.565 323.426 643.122Q323.975 643.679 324.496 644.263Q325.017 644.846 325.508 645.455Q326 646.064 326.46 646.696Q326.92 647.328 327.348 647.983Q327.777 648.638 328.172 649.313Q328.567 649.988 328.928 650.681Q329.289 651.375 329.615 652.086Q329.942 652.797 330.232 653.524Q330.522 654.25 330.776 654.99Q331.03 655.729 331.247 656.481Q331.464 657.233 331.643 657.994Q331.822 658.756 331.963 659.525Q332.08 660.193 332.163 660.866Q332.247 661.54 332.298 662.216Q332.348 662.892 332.366 663.571Q332.384 664.249 332.368 664.927Q332.352 665.605 332.304 666.282Q332.255 666.958 332.173 667.632Q332.092 668.305 331.977 668.974Q331.863 669.642 331.716 670.305Q331.569 670.967 331.39 671.621Q331.21 672.275 330.999 672.92Q330.788 673.565 330.546 674.198Q330.304 674.832 330.031 675.453Q329.758 676.074 329.455 676.681Q329.152 677.288 328.82 677.879Q328.488 678.471 328.127 679.045Q327.766 679.62 327.378 680.176C321.663 688.443 313.267 692.636 303.615 694.456C294.493 695.291 285.642 693.401 278.092 688.07C271.656 683.525 267.115 676.706 265.79 668.899Q265.667 668.161 265.581 667.418Q265.495 666.674 265.446 665.927Q265.398 665.181 265.387 664.433Q265.376 663.684 265.402 662.937Q265.429 662.189 265.493 661.443Q265.557 660.698 265.658 659.956Q265.759 659.215 265.897 658.479Q266.036 657.744 266.211 657.016Q266.386 656.289 266.597 655.571Q266.808 654.853 267.056 654.147Q267.303 653.441 267.585 652.748Q267.867 652.054 268.184 651.376Q268.5 650.698 268.85 650.037Q269.2 649.376 269.583 648.733Q269.966 648.09 270.381 647.467Q270.796 646.844 271.241 646.243C276.932 638.465 285.182 635.104 294.422 633.676Z"/>
	<path fill="#065E41" d="M298.325 642.175C302.798 642.013 307.669 643.324 311.486 645.615Q311.94 645.884 312.38 646.176Q312.82 646.467 313.244 646.781Q313.669 647.094 314.077 647.428Q314.485 647.763 314.876 648.117Q315.267 648.472 315.639 648.846Q316.011 649.22 316.364 649.612Q316.717 650.004 317.05 650.413Q317.383 650.823 317.695 651.249Q318.007 651.674 318.296 652.115Q318.586 652.556 318.853 653.011Q319.121 653.466 319.365 653.934Q319.608 654.402 319.828 654.882Q320.048 655.361 320.244 655.852Q320.439 656.342 320.61 656.841Q320.781 657.34 320.926 657.848Q321.071 658.355 321.19 658.869C322.482 664.507 321.671 670.587 318.522 675.487C314.362 681.962 308.253 684.509 301.082 686.098C294.963 686.099 289.705 684.933 284.645 681.243C279.934 677.807 276.72 672.855 276.033 667.016Q275.965 666.478 275.924 665.938Q275.884 665.398 275.87 664.856Q275.857 664.314 275.87 663.772Q275.884 663.231 275.925 662.69Q275.966 662.15 276.034 661.612Q276.102 661.075 276.197 660.541Q276.292 660.008 276.413 659.479Q276.535 658.951 276.683 658.43Q276.83 657.909 277.004 657.395Q277.178 656.882 277.378 656.378Q277.577 655.874 277.801 655.381Q278.026 654.888 278.275 654.407Q278.524 653.925 278.797 653.457Q279.069 652.989 279.365 652.535Q279.661 652.081 279.98 651.642Q280.298 651.204 280.638 650.782C285.241 645.067 291.274 642.924 298.325 642.175Z"/>
	<path fill="#065E41" d="M795.803 539.326C805.333 537.817 815.061 533.873 824.384 531.226Q859.074 521.715 893.461 511.159C910.33 506.053 927.353 501.69 944.331 496.984Q984.098 485.847 1024 475.205L1024 1024L0 1024L0 724.242L131.002 688.628C154.807 682.221 178.639 675.149 202.662 669.64L202.529 743.707Q350.218 828.87 498.994 912.119C505.52 909.016 511.662 905.019 517.939 901.437L555.071 880.438Q606.665 851.618 657.892 822.149C671.19 814.542 684.652 807.223 697.895 799.519L759.574 764.087C771.623 757.14 783.576 749.549 795.974 743.279Q796.4 641.302 795.803 539.326Z"/>
	<path fill="#178B6F" d="M0 0L1024 0L1024 475.205Q984.098 485.847 944.331 496.984C927.353 501.69 910.33 506.053 893.461 511.159Q859.074 521.715 824.384 531.226C815.061 533.873 805.333 537.817 795.803 539.326L795.922 393.979C793.708 394.173 791.547 393.964 789.338 393.8C783.903 392.822 778.51 391.677 773.407 389.507C759.806 383.724 754.09 373.915 748.722 360.788C747.989 357.488 747.912 354.31 747.853 350.941C742.298 347.049 736.058 343.865 730.154 340.504L694.19 320.381L586.826 259.237C586.824 259.05 586.82 258.863 586.821 258.675C586.831 254.525 588.941 249.362 587.167 245.528C583.51 241.857 577.276 240.144 572.47 238.52C546.548 229.759 518.537 225.999 491.234 225.927C474.622 225.884 458.199 226.721 441.755 229.164C406.321 234.428 343.858 252.182 318.094 277.596Q316.186 279.515 314.372 281.524C315.339 291.282 316.434 311.921 318.835 320.471C310.134 324.02 302.039 329.766 293.733 334.179Q260.791 351.451 228.222 369.417C232.149 383.357 236.263 397.677 238.979 411.898C243.227 413.184 247.063 414.997 249.327 419.053C251.053 422.144 251.292 425.749 250.308 429.113C249.456 432.025 247.927 433.909 245.688 435.9C248.617 443.475 253.673 450.524 257.666 457.589C261.862 465.014 265.273 474.158 270.937 480.55C273.86 483.849 278.138 485.347 281.558 488.004C277.489 492.679 272.182 496.991 265.732 497.432C260.768 497.771 257.57 495.549 254.042 492.439C252.809 496.316 251.791 501.012 247.801 503.015Q247.479 503.173 247.141 503.296Q246.804 503.42 246.456 503.507Q246.108 503.594 245.752 503.644Q245.397 503.694 245.038 503.707Q244.679 503.72 244.321 503.695Q243.963 503.669 243.609 503.607Q243.256 503.544 242.911 503.445Q242.566 503.346 242.233 503.211C239.644 502.158 237.327 501.036 235.714 498.684L234.975 499.293L235.194 498.681C230.875 501.416 225.465 503.593 220.228 502.595C219.132 502.386 217.927 501.874 217.262 500.936C216.946 500.49 216.792 499.945 216.617 499.438C219.971 495.129 223.269 492.679 225.394 487.316C228.619 479.179 227.211 470.138 228.065 461.611C228.855 453.73 230.585 446 230.645 438.05C226.834 434.896 223.341 431.583 222.853 426.338C222.436 421.854 224.731 417.995 227.536 414.714C227.66 414.569 227.793 414.43 227.921 414.288C224.457 401.406 221.47 388.37 217.77 375.557C212.123 378.394 206.145 380.247 202.707 385.928L202.662 669.64C178.639 675.149 154.807 682.221 131.002 688.628L0 724.242L0 0Z"/>
	<path fill="#065E41" d="M735.881 268.84C736.781 268.918 738.308 268.916 739.01 269.483C742.04 271.927 755.63 299.84 755.472 302.901C755.384 304.626 754.292 305.329 753.183 306.478C752.57 306.34 751.848 306.214 751.26 305.965C750.257 305.541 749.735 304.92 749.176 304.028C746.861 300.329 735.085 276.912 733.594 272.6C733.772 270.819 734.703 270.055 735.881 268.84Z"/>
	<path fill="#065E41" d="M820.577 259.376C821.423 259.423 822.703 259.407 823.492 259.768C824.827 260.38 824.949 260.913 825.49 262.176C825.222 267.439 814.479 293.921 810.94 297.381C809.939 297.268 808.64 297.162 807.74 296.702C806.394 296.014 806.224 295.305 805.745 293.996C806.301 290.714 818.879 261.334 820.577 259.376Z"/>
	<path fill="#065E41" d="M819.749 397.981C821.358 398.022 822.817 397.844 824.15 398.893C824.816 400.432 830.503 437.309 830.509 440.218C830.513 441.81 829.243 442.905 828.235 444.007C826.835 443.691 825.499 443.525 824.399 442.525C823.078 441.325 817.36 404.51 817.652 401.063C817.776 399.605 818.727 398.884 819.749 397.981Z"/>
	<path fill="#065E41" d="M851.38 370.849C854.108 370.93 856.233 372.094 858.602 373.302C863.515 375.807 887.61 387.354 888.909 391.377C888.569 393.146 887.573 394.231 886.478 395.62C882.234 395.753 855.429 381.14 851.387 378.071C850.147 377.129 849.353 376.441 849.311 374.77C849.271 373.183 850.426 371.974 851.38 370.849Z"/>
	<path fill="#065E41" d="M889.032 307.916L890.48 308.108C891.23 308.7 891.732 309.141 892.164 310.027C892.613 310.948 892.821 312.13 892.315 313.075C890.126 317.167 858.623 329.339 852.619 331.715C851.158 331.364 850.308 331.158 849.398 329.826C848.648 328.727 848.68 327.878 848.825 326.624C849.334 325.679 849.859 325.285 850.773 324.777C856.262 321.725 862.769 319.647 868.559 317.143C875.432 314.17 882.097 310.747 889.032 307.916Z"/>
	<path fill="#065E41" d="M773.92 313.498C790.467 335.049 805.948 357.807 823.547 378.498C821.211 381.132 817.093 386.032 813.796 387.215L812.929 386.233C805.813 376.516 797.585 367.255 790.074 357.806C780.441 345.687 771.136 333.022 760.842 321.463C764.797 318.301 769.508 315.96 773.92 313.498Z"/>
	<path fill="#065E41" d="M789.772 311.216C792.242 310.995 794.869 311.076 797.33 311.4C807.77 312.774 817.404 318.914 823.691 327.254C830.945 336.876 833.105 347.695 831.357 359.482C830.88 362.703 829.968 369.821 827.287 371.8L826.259 371.175C821.024 365.789 816.547 359.183 811.968 353.227Q796.313 332.731 781.004 311.975C783.893 311.566 786.861 311.439 789.772 311.216Z"/>
	<path fill="#065E41" d="M756.44 327.413C762.681 332.528 767.918 340.491 773.03 346.81L808.209 390.625C804.623 391.78 798.945 392.417 795.922 393.979C793.708 394.173 791.547 393.964 789.338 393.8C783.903 392.822 778.51 391.677 773.407 389.507C759.806 383.724 754.09 373.915 748.722 360.788C747.989 357.488 747.912 354.31 747.853 350.941C749.433 342.201 751.527 334.93 756.44 327.413Z"/>
	<path fill="#065E41" d="M435.802 116.866C463.354 123.827 491.191 129.973 518.869 136.441L677.578 173.495C696.572 177.956 715.533 182.683 734.574 186.92C745.218 189.289 760.495 191.724 770.37 195.106C772.596 195.868 775.693 197.341 776.549 199.742C776.96 200.896 776.553 202.07 775.991 203.09C775.235 204.464 773.636 205.354 772.225 205.881C764.947 208.597 756.829 210.268 749.332 212.424L702.157 226.126L636.725 245.054C622.145 249.251 607.558 253.819 592.72 257.014Q593.624 255.654 594.44 254.24C595.899 251.656 596.609 248.459 595.71 245.571C594.146 240.549 587.283 236.523 582.776 234.362C573.444 229.89 562.236 227.154 552.175 224.821C494.093 211.349 429.177 218.021 373.511 238.485C356.035 244.909 314.132 262.865 306.214 279.953C306.323 283.26 306.474 286.507 306.892 289.792C298.576 289.302 290.175 289.591 281.842 289.424L207.563 288.227C210.194 296.413 212.136 304.985 214.287 313.319L228.222 369.417C232.149 383.357 236.263 397.677 238.979 411.898C243.227 413.184 247.063 414.997 249.327 419.053C251.053 422.144 251.292 425.749 250.308 429.113C249.456 432.025 247.927 433.909 245.688 435.9C248.617 443.475 253.673 450.524 257.666 457.589C261.862 465.014 265.273 474.158 270.937 480.55C273.86 483.849 278.138 485.347 281.558 488.004C277.489 492.679 272.182 496.991 265.732 497.432C260.768 497.771 257.57 495.549 254.042 492.439C252.809 496.316 251.791 501.012 247.801 503.015Q247.479 503.173 247.141 503.296Q246.804 503.42 246.456 503.507Q246.108 503.594 245.752 503.644Q245.397 503.694 245.038 503.707Q244.679 503.72 244.321 503.695Q243.963 503.669 243.609 503.607Q243.256 503.544 242.911 503.445Q242.566 503.346 242.233 503.211C239.644 502.158 237.327 501.036 235.714 498.684L234.975 499.293L235.194 498.681C230.875 501.416 225.465 503.593 220.228 502.595C219.132 502.386 217.927 501.874 217.262 500.936C216.946 500.49 216.792 499.945 216.617 499.438C219.971 495.129 223.269 492.679 225.394 487.316C228.619 479.179 227.211 470.138 228.065 461.611C228.855 453.73 230.585 446 230.645 438.05C226.834 434.896 223.341 431.583 222.853 426.338C222.436 421.854 224.731 417.995 227.536 414.714C227.66 414.569 227.793 414.43 227.921 414.288C224.457 401.406 221.47 388.37 217.77 375.557C215.617 363.608 211.486 351.465 208.374 339.686C203.881 322.684 199.909 305.524 195.669 288.456Q176.401 288.058 157.129 288.026C151.232 287.996 137.351 288.862 132.114 287.266C130.804 286.867 129.649 285.694 129.096 284.447C128.54 283.192 128.443 282.037 129.009 280.754C129.606 279.404 131.526 278.41 132.741 277.733C148.025 269.208 163.832 261.394 179.288 253.161L294.49 191.879L403.223 133.941C414.091 128.283 424.798 122.249 435.802 116.866Z"/>
</svg>
