<?xml version="1.0" encoding="utf-8" ?>
<svg xmlns="http://www.w3.org/2000/svg" xmlns:xlink="http://www.w3.org/1999/xlink" width="1024" height="1024">
	<path fill="#065E41" d="M0 0L1024 0L1024 1024L0 1024L0 0Z"/>
	<path fill="#F6C015" d="M503.94 334.467Q505.913 337.908 507.764 341.416C506.031 342.046 504.668 342.434 502.818 342.499C503.067 340.505 502.878 338.94 502.463 336.981L503.198 336.698L503.94 334.467Z"/>
	<path fill="#36B17A" d="M507.764 341.416C512.859 351.304 513.285 362.361 514.376 373.233C509.017 372.127 503.902 371.087 500.771 366.067C498.153 361.87 498.704 356.818 499.907 352.254Q501.235 347.339 502.818 342.499C504.668 342.434 506.031 342.046 507.764 341.416Z"/>
	<path fill="#36B17A" d="M336.243 705.653Q351.431 705.7 366.618 705.498C362.255 710.495 359.849 715.257 357.176 721.253C348.823 719.888 340.008 718.657 332.087 715.609C333.623 712.388 334.874 708.954 336.243 705.653Z"/>
	<path fill="#FEFEFE" d="M414.54 629.879C419.408 629.723 424.256 629.799 429.123 629.889Q429.031 654.521 429.262 679.15L429.382 707.803C440.955 707.807 452.583 707.563 464.15 707.799L464.025 721.226L414.472 721.272L414.421 683.172L414.54 629.879Z"/>
	<path fill="#FBD001" d="M574.475 413.37C578.004 415.484 605.647 465.478 608.943 472.471C610.183 475.101 612.182 478.598 610.979 481.474C609.704 484.519 598.371 492.392 594.976 493.888L594.046 493.288C587.544 483.406 582.319 472.464 576.332 462.238C569.217 450.086 561.225 438.238 554.612 425.821Q564.578 419.651 574.475 413.37Z"/>
	<path fill="#FBD001" d="M548.269 430.4C551.178 432.576 585.307 491.715 588.641 498.841C582.381 503.811 575.703 508.606 568.894 512.794C568.096 512.434 567.28 512.058 566.563 511.552C563.862 509.648 533.888 457.115 530.676 450.825C529.596 448.712 528.761 446.618 528.263 444.286C529.277 441.576 544.954 432.564 548.269 430.4Z"/>
	<path fill="#36B17A" d="M468.336 335.344C477.434 337.295 486.656 339.16 495.51 342.049C492.993 350.752 489.339 360.68 494.154 369.294C498.395 376.881 507.202 378.705 514.904 380.847C515.527 396.384 517.231 412.327 518.773 427.804C519.203 432.112 521.322 444.953 520.753 448.417C520.632 449.15 518.93 450.074 518.3 450.536Q514.556 453.951 510.629 457.155C506.25 446.038 503.027 434.465 499.534 423.048Q492.798 401.563 486.317 380.001C483.003 369.029 480.09 357.589 475.486 347.084C473.584 342.745 471.419 338.947 468.336 335.344Z"/>
	<path fill="#FEFEFE" d="M519.733 629.89Q543.334 629.68 566.935 629.827L566.842 643.037L525.478 642.986L525.444 668.444L559.893 668.495L559.924 681.421L525.552 681.571L525.528 709.554Q546.835 709.47 568.142 709.666L568.069 723.341L510.52 723.309L510.533 660.156C510.512 650.283 511.372 639.551 510.112 629.815C513.322 629.888 516.522 629.955 519.733 629.89Z"/>
	<path fill="#FEFEFE" d="M602.653 629.754L602.927 630.18L602.914 629.526C605.51 631.312 624.525 658.73 627.787 663.24C636.198 652.394 643.402 640.507 652.107 629.907L669.06 629.974C658.35 645.431 646.302 660.425 636.436 676.399C647.469 691.767 658.751 706.993 668.869 722.986C665.425 723.05 655.207 723.958 652.569 722.757C652.042 722.517 651.702 721.989 651.269 721.605C643.167 710.658 635.597 699.172 627.126 688.524C619.531 700.441 610.565 712.279 601.917 723.458L583.747 723.455C587.832 716.894 592.805 710.744 597.482 704.6L618.802 676.672C615.089 669.441 609.889 662.712 605.166 656.115Q595.826 643.121 586.628 630.026L602.653 629.754Z"/>
	<path fill="#FEFEFE" d="M723.123 626.795C727.488 631.838 737.753 657.862 741.053 665.44L766.334 722.899L750.362 722.972Q746.541 714.341 743.155 705.53L725.528 705.457L704.018 705.494C701.589 711.29 698.988 717.064 697.025 723.038L681.397 723.021C688.361 705.496 696.105 688.27 703.576 670.955C709.967 656.143 715.962 641.267 723.123 626.795Z"/>
	<path fill="#065E41" d="M723.069 656.854Q729.93 674.531 737.509 691.912L724.25 691.929L709.418 691.93C714.201 680.344 719.31 668.825 723.069 656.854Z"/>
	<path fill="#FEFEFE" d="M427.319 748.37C431.611 757.233 435.377 766.354 439.44 775.325Q451.599 801.862 463.102 828.69C465.791 834.8 468.738 840.904 471.149 847.123C466.385 847.199 459.395 848.161 454.88 846.899C452.118 840.65 449.485 834.285 446.47 828.156C433.581 828.212 420.624 828.53 407.743 828.176Q403.694 837.844 399.163 847.295L394.075 847.329L383.516 847.361C386.005 838.144 391.916 826.968 395.875 817.914Q411.174 782.951 427.319 748.37Z"/>
	<path fill="#065E41" d="M427.045 779.311C432.297 791.348 436.922 803.786 441.664 816.038L427.035 815.895Q419.781 815.956 412.531 815.727Q420.412 797.768 427.045 779.311Z"/>
	<path fill="#FEFEFE" d="M781.276 627.669C786.458 631.414 793.896 641.254 798.431 646.343L829.492 680.762C844.788 662.877 860.891 645.688 875.954 627.597C876.577 659.165 876.19 690.843 876.044 722.422L860.772 722.29C861.025 713.457 860.866 704.587 860.866 695.75L860.724 665.386C849.59 676.787 840.061 689.767 828.962 701.255C818.292 688.709 807.14 676.61 796.578 663.964L796.563 722.493L781.189 722.489Q780.94 675.078 781.276 627.669Z"/>
	<path fill="#FEFEFE" d="M491.82 754.022C508.119 753.954 528.976 750.763 541.454 763.578C547.691 769.984 550.068 779.09 549.812 787.834C549.561 796.428 546.556 804.472 540.217 810.445C529.635 820.417 514.143 818.626 500.781 818.567L500.831 847.3L485.584 847.298L485.637 813.033C485.645 806.213 485.9 799.266 485.469 792.462C485.864 779.685 485.569 766.825 485.544 754.038L491.82 754.022Z"/>
	<path fill="#065E41" d="M505.805 768.235C509.267 768.142 512.742 768.015 516.204 768.069C521.327 768.15 526.471 769.221 530.067 773.159C533.376 776.783 534.618 781.915 534.414 786.72C534.15 792.946 531.928 797.73 527.369 801.87C519.833 806.806 509.511 805.275 500.918 805.079C500.903 798.609 499.975 773.401 501.102 768.733C502.53 768.047 504.251 768.244 505.805 768.235Z"/>
	<path fill="#FEFEFE" d="M567.162 754.166C583.469 753.993 609.675 750.906 622.75 761.751C628.82 766.786 632.338 774.302 633.119 782.071C634.004 790.874 631.911 800.029 626.202 806.917C620.246 814.104 613.129 817.06 603.945 817.882L582.936 818.458Q583.034 832.741 582.838 847.023C577.56 847.122 572.27 847.086 566.99 847.116C566.982 816.206 565.864 785.044 567.162 754.166Z"/>
	<path fill="#065E41" d="M583.009 767.947C591.559 767.842 604.538 766.123 611.791 771.679C615.371 774.422 616.937 778.386 617.424 782.765C618.135 789.155 616.759 794.754 612.657 799.753C604.733 807.185 593.058 805.093 583.009 804.996L583.009 767.947Z"/>
	<path fill="#FEFEFE" d="M252.06 630.399C265.325 629.619 282.471 628.299 293.17 637.615C299.094 642.772 301.98 650.248 302.397 657.953C302.797 665.328 300.991 673.347 296.028 679C292.455 683.069 287.612 685.522 282.902 688.016C284.938 690.804 286.909 693.629 289.294 696.135Q298.465 708.857 306.985 722.025Q300.371 722.124 293.768 722.535C293.037 722.569 292.202 722.667 291.479 722.577C287.618 722.097 269.848 694.424 266.827 689.927C262.901 689.727 258.936 689.878 255.004 689.925L255.026 722.483L239.106 722.505Q238.896 690.474 239.138 658.445C239.246 649.506 238.664 639.97 239.697 631.116C240.945 630.197 242.664 630.492 244.146 630.512L252.06 630.399Z"/>
	<path fill="#36B17A" d="M262.278 644.343C268.957 644.414 277.792 643.733 282.934 648.75C286.591 652.319 287.115 657.159 287.034 661.992C287.023 662.66 286.982 663.314 286.93 663.98C279.31 656.724 269.69 651.65 262.278 644.343Z"/>
	<path fill="#36B17A" d="M254.713 646.808L255.034 645.212C256.962 643.788 259.945 644.269 262.278 644.343C269.69 651.65 279.31 656.724 286.93 663.98L285.202 667.775C284.444 669.173 283.409 670.595 282.257 671.691C275.758 677.876 263.224 676.042 254.904 675.942C255.001 666.535 255.986 656.074 254.713 646.808Z"/>
	<path fill="#065E41" d="M254.713 646.808L255.034 645.212C256.962 643.788 259.945 644.269 262.278 644.343C269.69 651.65 279.31 656.724 286.93 663.98L285.202 667.775C281.893 665.372 278.906 662.579 275.512 660.237C268.723 655.551 261.466 651.544 254.713 646.808Z"/>
	<path fill="#FBD001" d="M409.934 243.75C413.917 247.311 416.696 252.05 420.817 255.542C431.623 264.698 452.927 270.662 466.312 275.864C477.581 295.969 490.958 315.432 503.94 334.467L503.198 336.698L502.463 336.981C495.387 332.489 474.78 330.076 465.527 327.785C452.209 324.487 439.104 320.301 425.82 316.855C411.907 313.245 397.852 310.373 384.138 305.999C379.017 304.366 367.318 301.501 364.978 296.441C364.246 294.857 364.337 293.136 364.984 291.541C367.133 286.245 374.01 281.267 379.159 279.292C384.468 283.052 392.062 286.978 398.223 289.107C400.321 289.832 402.311 290.197 404.37 289.203C405.181 288.062 405.258 288.066 405.167 286.684C402.225 281.226 390.165 277.105 384.458 274.357C392.603 264.134 398.705 250.891 409.934 243.75Z"/>
	<path fill="#FEFEFE" d="M165.32 628.632C177.458 627.42 189.731 629.42 200.003 636.307Q200.964 636.945 201.893 637.629Q202.821 638.314 203.714 639.044Q204.607 639.774 205.463 640.548Q206.319 641.321 207.135 642.136Q207.951 642.951 208.726 643.806Q209.501 644.661 210.232 645.553Q210.963 646.445 211.649 647.373Q212.335 648.3 212.974 649.26Q213.613 650.221 214.204 651.212Q214.794 652.203 215.335 653.222Q215.875 654.241 216.364 655.286Q216.853 656.331 217.29 657.398Q217.726 658.466 218.109 659.554Q218.492 660.643 218.82 661.748Q219.148 662.854 219.421 663.975Q219.694 665.096 219.911 666.229C222.345 679.077 219.78 693.202 212.293 704.008C204.501 715.255 192.379 721.619 179.111 723.946C166.612 725.148 154.613 723.602 143.982 716.48C133.483 709.446 126.52 699.092 124.173 686.647C121.749 673.797 124.464 659.32 131.905 648.508C139.837 636.982 151.879 631.111 165.32 628.632Z"/>
	<path fill="#065E41" d="M170.286 642.693C177.43 642.129 184.566 643.811 190.527 647.87Q191.219 648.345 191.886 648.853Q192.553 649.361 193.194 649.903Q193.835 650.444 194.448 651.016Q195.061 651.588 195.645 652.19Q196.229 652.792 196.782 653.423Q197.335 654.053 197.856 654.71Q198.377 655.368 198.865 656.05Q199.353 656.732 199.806 657.438Q200.259 658.144 200.677 658.872Q201.094 659.599 201.475 660.346Q201.855 661.094 202.198 661.859Q202.541 662.625 202.846 663.406Q203.15 664.188 203.415 664.984Q203.681 665.779 203.906 666.587Q204.131 667.395 204.316 668.213Q204.5 669.032 204.644 669.858C206.237 678.836 204.433 688.327 199.161 695.811C193.225 704.238 184.973 708.355 175.014 710.02C165.797 710.099 158.02 708.725 150.652 702.789C143.577 697.087 139.736 689.131 138.851 680.162C137.938 670.907 140.2 661.788 146.182 654.559C152.526 646.893 160.588 643.634 170.286 642.693Z"/>
	<path fill="#36B17A" d="M688.004 123.637C692.248 123.282 696.054 124.047 700.009 125.537C706.963 128.158 713.76 131.517 720.571 134.497L765.514 154.454C774.188 158.37 784.585 161.407 792.427 166.737C797.718 170.332 801.78 175.885 804.377 181.67C806.779 187.02 808.06 192.699 807.23 198.584C806.032 207.071 802.746 215.862 800.287 224.072L785.299 273.462L762.021 352.05Q757.144 369.454 752.011 386.784C750.235 392.774 748.628 398.981 746.334 404.794C744.57 409.262 739.671 413.69 735.264 415.468C731.785 416.872 727.644 417.828 723.909 417.212C715.336 415.799 706.539 410.682 698.534 407.272C689.264 403.322 679.905 399.569 670.6 395.702C677.639 391.248 685.548 388.803 690.467 381.648C690.543 379.117 690.493 376.565 690.5 374.032C704.114 378.533 716.7 386.461 730.36 390.667C733.098 391.51 736.452 392.284 739.09 390.762C741.041 389.635 742.517 387.727 743.39 385.681C746.065 379.422 747.739 372.559 749.707 366.053Q754.682 349.929 759.481 333.752L786.453 244.981C791.229 228.889 795.444 212.25 801.569 196.63Q800.961 196.181 800.333 195.759C791.275 189.59 779.532 185.523 769.421 181.268L735.881 166.96C716.467 158.731 696.649 149.142 677.121 141.585C675.799 141.074 674.504 140.515 673.074 140.798C672.687 141.339 672.569 141.473 672.26 142.011C668.338 148.854 664.405 166.842 662.027 175.253Q652.371 208.281 643.305 241.476L624.86 306.371C621.889 316.666 618.575 326.914 615.889 337.285C615.323 339.471 613.959 343.86 614.703 345.986C615.287 347.655 620.797 349.398 622.432 350.063C618.205 354.531 614.904 360.323 610.27 364.293C608.272 362 607.409 358.393 607.149 355.438C606.881 352.382 607.1 348.961 607.856 345.99C609.053 341.284 610.702 336.662 612.048 331.993L622.966 294.467L639.799 235.762C648.814 204.835 656.611 173.595 666.306 142.861C667.262 139.832 668.176 135.776 670.293 133.404C670.46 133.217 670.64 133.043 670.809 132.858C675.667 127.559 681.02 124.817 688.004 123.637Z"/>
	<path fill="#065E41" d="M719.053 143.704C723.302 143.756 759.412 160.042 763.369 163.168C764.105 163.749 764.656 164.484 764.687 165.445C764.748 167.347 763.506 168.531 762.256 169.759C760.864 169.787 759.632 169.715 758.299 169.292C753.015 167.618 747.82 164.721 742.752 162.466C735.454 159.219 727.559 156.311 720.605 152.431C719.169 151.63 717.503 150.761 717.157 149.009C716.725 146.827 717.859 145.384 719.053 143.704Z"/>
	<path fill="#36B17A" d="M481.933 103.673C482.792 103.572 483.631 103.489 484.495 103.442C500.892 102.543 519.991 110.818 532.06 121.612C532.536 145.096 527.37 167.517 512.439 186.267C508.539 191.163 501.448 196.946 498.802 202.245C498.759 203.435 499.024 204.561 499.836 205.478C500.672 206.424 501.287 206.78 502.524 206.901C504.086 206.369 505.071 205.615 506.228 204.469C529.841 181.085 538.699 157.874 539.108 125.092C541.714 125.34 544.225 125.742 546.768 126.375C551.514 127.557 556.026 129.806 558.495 134.224C562.013 140.519 560.198 148.973 558.293 155.534C549.728 185.047 526.705 210.645 500.13 225.28Q499.409 223.162 498.368 221.181Q497.328 219.2 495.993 217.404C492.466 212.71 487.369 209.329 481.493 208.539C476.706 207.895 471.723 209.075 467.956 212.162C464.087 215.331 462.083 220.077 461.599 224.975C460.461 236.471 467.447 247.876 474.273 256.48C474.591 259.186 474.919 261.974 474.262 264.657C473.78 266.624 473.007 267.718 471.292 268.781C467.061 268.657 462.213 266.304 458.291 264.831C452.915 262.811 447.046 261.021 441.984 258.304C432.314 253.114 424.324 245.04 415.222 238.949C408.55 234.484 401.197 230.913 394.69 226.269C386.294 220.277 380.742 211.995 379.055 201.762C377.332 191.306 378.885 179.983 385.229 171.27C390.835 163.569 412.666 147.749 420.98 140.975C432.615 131.496 444.224 119.873 457.173 112.318C465.012 107.745 472.989 105.043 481.933 103.673Z"/>
	<path fill="#FEFEFE" d="M674.978 145.352C693.74 154.216 713.137 161.855 732.143 170.185C753.24 179.432 774.32 189.535 795.895 197.577L757.327 325.298L745.647 363.921C743.658 370.484 742.007 377.542 739.425 383.874C738.886 385.196 738.377 386.033 737.331 387.005C733.485 387.833 699.885 372.66 694.294 370.183C692.608 369.416 690.912 368.851 689.147 368.292C683.574 353.739 675.632 345.198 661.469 338.49C667.116 333.54 672.904 328.911 678.771 324.229C681.516 322.038 684.531 319.084 684.804 315.363C684.981 312.952 683.765 311.011 682.12 309.351Q681.81 309.038 681.471 308.758Q681.131 308.477 680.765 308.232Q680.399 307.987 680.01 307.78Q679.622 307.573 679.214 307.405Q678.807 307.238 678.385 307.112Q677.963 306.986 677.53 306.903Q677.098 306.82 676.659 306.781Q676.22 306.741 675.78 306.746C663.72 306.805 634.68 337.383 625.596 346.713L618.669 343.464C624.532 326.338 628.939 308.588 634.062 291.217Q655.169 218.467 674.978 145.352Z"/>
	<path fill="#065E41" d="M699.272 223.621C708.9 222.577 718.385 224.375 726.408 229.939Q727.2 230.486 727.964 231.072Q728.729 231.658 729.463 232.281Q730.197 232.904 730.9 233.562Q731.602 234.221 732.272 234.913Q732.941 235.605 733.575 236.33Q734.21 237.054 734.808 237.809Q735.405 238.564 735.965 239.347Q736.525 240.131 737.046 240.941Q737.566 241.751 738.046 242.586Q738.526 243.421 738.964 244.278Q739.402 245.136 739.797 246.014Q740.192 246.892 740.544 247.788Q740.895 248.685 741.202 249.598Q741.508 250.51 741.77 251.437Q742.031 252.364 742.246 253.302Q742.461 254.241 742.63 255.189Q742.807 256.167 742.937 257.152Q743.066 258.138 743.147 259.128Q743.228 260.119 743.26 261.112Q743.292 262.105 743.275 263.099Q743.259 264.092 743.193 265.084Q743.128 266.076 743.014 267.063Q742.9 268.05 742.738 269.031Q742.576 270.011 742.366 270.983Q742.156 271.954 741.898 272.914Q741.641 273.874 741.336 274.82Q741.032 275.766 740.682 276.696Q740.332 277.626 739.936 278.538Q739.541 279.449 739.101 280.341Q738.661 281.232 738.178 282.101Q737.695 282.969 737.171 283.813Q736.646 284.657 736.08 285.474C729.165 295.349 719.791 300.367 708.118 302.413C698.349 303.197 689.343 301.552 681.056 296.148C672.406 290.506 666.167 280.899 664.151 270.793C662.132 260.675 664.187 249.692 670.061 241.17C676.961 231.161 687.53 225.726 699.272 223.621Z"/>
	<path fill="#FEFEFE" d="M702.258 229.183C709.881 228.323 718.466 231.059 724.507 235.677C731.636 241.125 736.399 249.684 737.481 258.575C738.604 267.803 735.875 276.825 730.074 284.046C723.371 292.388 715.037 295.781 704.621 296.886Q703.901 296.919 703.18 296.921Q702.459 296.923 701.739 296.893Q701.018 296.863 700.3 296.803Q699.582 296.742 698.867 296.65Q698.152 296.558 697.441 296.435Q696.731 296.312 696.027 296.159Q695.322 296.005 694.625 295.821Q693.928 295.637 693.24 295.423Q692.552 295.209 691.873 294.965Q691.195 294.722 690.527 294.449Q689.86 294.176 689.205 293.874Q688.551 293.573 687.909 293.243Q687.268 292.913 686.642 292.556Q686.016 292.198 685.406 291.814Q684.796 291.43 684.203 291.02Q683.61 290.61 683.036 290.174Q682.343 289.64 681.678 289.072Q681.012 288.505 680.375 287.905Q679.738 287.305 679.132 286.675Q678.525 286.045 677.95 285.386Q677.375 284.727 676.833 284.04Q676.291 283.354 675.783 282.641Q675.275 281.929 674.803 281.192Q674.331 280.456 673.896 279.697Q673.46 278.938 673.063 278.159Q672.665 277.38 672.307 276.582Q671.948 275.785 671.629 274.97Q671.309 274.156 671.031 273.327Q670.752 272.497 670.514 271.656Q670.276 270.814 670.08 269.961Q669.884 269.109 669.73 268.248Q669.576 267.387 669.464 266.519C668.361 257.967 670.442 249.77 675.819 242.976C682.43 234.622 691.85 230.353 702.258 229.183Z"/>
	<path fill="#065E41" d="M723.71 249.845C723.934 249.89 724.172 249.894 724.384 249.98C725.865 250.583 726.954 252.983 727.747 254.323C723.768 257.584 719.353 260.412 715.236 263.511C707.838 269.081 700.541 275.648 692.305 279.888C688.767 275.332 686.223 269.596 683.538 264.495C682.527 262.543 680.783 259.871 680.65 257.657C680.565 256.249 680.993 255.895 681.853 254.922C682.589 254.672 683.102 254.32 683.888 254.545C687.874 255.685 692.336 268.017 694.282 271.817C697.836 269.569 701.153 266.671 704.518 264.137L723.71 249.845Z"/>
	<path fill="#36B17A" d="M362.8 305.182C377.904 313.759 403.452 318.689 420.718 323.144C431.178 325.843 449.998 329.416 458.505 336.043C462.573 339.211 466.3 344.262 468.524 348.899C474.09 360.499 477.093 374.344 480.752 386.693C487.258 408.647 493.722 430.737 500.926 452.469C494.166 453.659 484.997 455.997 479.977 460.941C479.444 462.212 479.288 463.075 479.745 464.427C480.167 465.674 481.029 466.099 482.133 466.604C486.369 466.086 490.91 462.893 494.915 461.325C497.197 460.432 499.745 460.03 502.151 459.591L478.267 483.098C475.719 485.569 472.606 487.629 470.295 490.295C469.25 491.5 468.426 492.733 468.36 494.379C468.328 495.188 468.661 495.993 469.217 496.598C469.993 497.442 471.026 497.571 472.101 497.465C475.565 497.12 496.845 474.883 501.079 470.642C502.817 468.9 506.127 464.754 508.354 463.823C509.324 463.418 509.959 463.476 510.81 463.98C510.444 469.157 509.166 474.362 508.247 479.467C506.033 491.766 503.394 503.971 501.175 516.266C500.442 520.326 499.119 524.6 498.901 528.692C498.83 530.016 498.89 531.596 499.834 532.602C500.518 533.33 500.911 533.503 501.827 533.809C503.095 533.589 503.711 533.344 504.546 532.311C505.622 530.979 506.173 529.018 506.595 527.393C508.264 520.958 508.956 514.078 510.201 507.533C513.135 492.111 516.466 476.744 519.188 461.279L524.532 455.17C530.164 464.437 535.4 473.953 540.863 483.322C546.771 493.452 552.931 503.489 558.563 513.772L529.957 533.858C520.981 540.249 511.625 548.579 501.183 552.343C495.69 554.322 489.71 554.56 483.985 553.582C478.827 552.701 474.094 550.662 469.787 547.707C454.835 537.447 436.037 511.525 425.379 496.237Q410.976 475.64 397.427 454.471C392.07 446.075 387.04 436.443 380.838 428.721C379.57 427.142 378.321 425.818 376.286 425.371C375.014 425.718 373.871 426.151 372.999 427.2C372.392 427.928 372.565 428.681 372.836 429.506C374.439 434.393 384.523 448.35 387.881 453.565C405.099 480.304 445.445 545.551 472.9 557.884C478.083 560.213 483.71 560.761 489.281 561.494C485.737 581.119 480.319 600.667 475.277 619.952C472.144 631.935 469.689 645.506 464.225 656.657C462.065 661.063 459.447 664.436 455.356 667.241C447.785 672.431 437.978 676.253 429.262 679.15Q429.031 654.519 429.123 629.889C424.256 629.799 419.408 629.723 414.54 629.879L414.421 683.172C405.208 685.795 396.334 690.528 387.167 693.458C390.861 702.692 394.962 711.89 398.332 721.236L382.311 721.198Q378.849 713.431 375.781 705.499L366.618 705.498Q351.431 705.7 336.243 705.653C334.874 708.954 333.623 712.388 332.087 715.609L329.555 722.162L313.925 722.14C314.951 719.263 316.162 716.44 317.308 713.608C315.573 712.761 313.914 711.698 312.248 710.721C325.218 665.51 343.653 620.018 364.413 577.838C370.671 565.122 376.909 552.267 383.44 539.695C385.822 535.111 389.054 530.764 391.031 526.004C391.813 524.121 392.115 522.722 391.674 520.73C391.089 520.029 390.905 519.59 390.006 519.276C389.054 518.944 387.4 518.721 386.496 519.289C383.963 520.883 374.531 540.356 372.379 544.682C361.904 565.739 351.297 586.544 341.773 608.067Q328.269 638.99 317.207 670.868C312.725 683.55 308.101 696.144 304.594 709.14C302.193 706.263 292.701 696.703 289.294 696.135C286.909 693.629 284.938 690.804 282.902 688.016C287.612 685.522 292.455 683.069 296.028 679C300.991 673.347 302.797 665.328 302.397 657.953C301.98 650.248 299.094 642.772 293.17 637.615C282.471 628.299 265.325 629.619 252.06 630.399C259.405 584.684 296.361 556.719 330.188 529.595L372.29 495.453C376.067 492.44 385.991 486.116 387.812 482.028C388.38 480.751 388.198 480.148 387.776 478.868C386.616 477.849 385.965 477.555 384.467 477.178C382.825 477.547 381.494 478.576 380.173 479.576C369.556 487.612 359.473 496.498 349.122 504.887C331.978 518.779 314.677 532.429 297.671 546.497C300.633 516.326 309.177 466.714 323.338 440.501C329.616 428.882 337.552 419.395 346.185 409.501C348.993 406.283 357.296 398.295 358.125 394.359C358.291 393.573 357.813 392.926 357.515 392.218C356.413 391.355 355.72 390.783 354.237 390.971C352.919 391.137 351.788 391.733 350.794 392.596C347.922 395.089 345.505 398.851 343.06 401.8C336.647 409.535 330.159 416.991 324.492 425.313C331.064 390.862 344.198 333.908 362.8 305.182Z"/>
	<path fill="#065E41" d="M430.361 349.179C431.659 349.021 433.009 348.861 434.317 348.907C436.096 348.97 437.432 349.638 438.615 350.95C438.811 352.101 438.894 352.658 438.223 353.729C436.268 356.848 427.495 356.368 424.005 357.532C404.429 364.064 394.179 379.902 384.982 397.234C384.229 398.129 383.421 398.726 382.221 398.919C381.603 399.018 380.802 398.958 380.273 398.596C379.222 397.876 378.855 396.942 378.737 395.703C378.171 389.78 386.774 378.416 390.315 373.803C400.336 360.748 413.817 351.337 430.361 349.179Z"/>
	<path fill="#FEFEFE" d="M353.102 629.072L360.563 629.086C368.677 650.866 378.219 672.021 387.167 693.458C390.861 702.692 394.962 711.89 398.332 721.236L382.311 721.198Q378.849 713.431 375.781 705.499L366.618 705.498Q351.431 705.7 336.243 705.653C334.874 708.954 333.623 712.388 332.087 715.609L329.555 722.162L313.925 722.14C314.951 719.263 316.162 716.44 317.308 713.608L336.984 668.959C342.691 655.92 348.838 642.642 353.102 629.072Z"/>
	<path fill="#36B17A" d="M356.199 657.826C359.491 661.112 368.119 686.143 370.164 691.774L357.125 691.731L341.883 691.808L356.199 657.826Z"/>
</svg>
